<?xml version="1.0" encoding="utf-8"?>
<!DOCTYPE svg PUBLIC "-//W3C//DTD SVG 20010904//EN" "http://www.w3.org/TR/2001/REC-SVG-20010904/DTD/svg10.dtd">
<svg version="1.0" xmlns="http://www.w3.org/2000/svg" width="130pt" height="53pt" viewBox="0 0 130 53" style="" preserveAspectRatio="xMidYMid meet">
<g fill="#10426CFF" stroke="#10426CFF">
<path d="M 25.000 15.500 C 25.000 21.167 25.404 25.000 26.000 25.000 C 26.550 25.000 27.000 23.200 27.000 21.000 C 27.000 15.612 29.315 15.693 34.121 21.250 C 36.143 23.588 38.148 25.158 38.576 24.740 C 39.004 24.321 38.059 22.627 36.476 20.975 L 33.597 17.970 35.799 16.428 C 37.335 15.352 38.000 13.857 38.000 11.478 C 38.000 7.324 35.962 6.000 29.566 6.000 L 25.000 6.000 25.000 15.500 "/></g>
<g fill="#10426CFF" stroke="#10426CFF">
<path d="M 67.667 6.667 C 67.300 7.033 67.000 8.341 67.000 9.573 C 67.000 11.320 66.560 11.698 65.002 11.290 C 63.903 11.003 61.878 11.505 60.502 12.407 C 58.467 13.740 58.000 14.858 58.000 18.401 C 58.000 23.810 59.278 24.914 65.271 24.682 L 70.000 24.500 70.000 15.250 C 70.000 6.769 69.479 4.854 67.667 6.667 "/></g>
<g fill="#E30748FF" stroke="#E30748FF">
<path d="M 46.092 37.874 L 45.902 45.748 48.701 46.295 C 53.107 47.156 56.446 45.051 56.818 41.178 C 57.257 36.617 55.416 34.671 51.296 35.339 C 48.195 35.843 48.000 35.701 48.000 32.937 C 48.000 31.322 47.613 30.000 47.141 30.000 C 46.668 30.000 46.196 33.543 46.092 37.874 "/></g>
<g fill="#10426CFF" stroke="#10426CFF">
<path d="M 44.343 13.566 C 39.735 18.174 43.022 25.438 49.423 24.794 C 53.871 24.347 53.784 22.243 49.323 22.382 C 46.489 22.471 45.479 22.070 45.210 20.750 C 44.908 19.266 45.626 19.000 49.927 19.000 C 52.717 19.000 55.000 18.842 55.000 18.649 C 55.000 16.295 52.414 12.077 50.687 11.614 C 47.370 10.724 47.103 10.807 44.343 13.566 M 50.418 13.607 C 53.441 14.767 52.179 17.000 48.500 17.000 C 46.147 17.000 45.000 16.536 45.000 15.583 C 45.000 13.520 47.662 12.549 50.418 13.607 "/></g>
<g fill="#10426CFF" stroke="#10426CFF">
<path d="M 119.280 12.020 C 114.954 13.761 115.074 22.165 119.454 24.161 C 122.003 25.322 127.000 24.582 127.000 23.044 C 127.000 22.539 125.469 22.374 123.597 22.678 C 120.828 23.127 119.983 22.836 119.062 21.115 C 117.979 19.092 118.148 19.000 122.965 19.000 C 127.638 19.000 128.000 18.824 128.000 16.557 C 128.000 15.165 127.043 13.443 125.777 12.557 C 123.284 10.810 122.457 10.742 119.280 12.020 M 124.418 13.607 C 127.674 14.857 126.125 17.000 121.965 17.000 C 118.240 17.000 118.012 16.846 119.000 15.000 C 120.100 12.944 121.651 12.545 124.418 13.607 "/></g>
<g fill="#10426CFF" stroke="#10426CFF">
<path d="M 102.396 7.750 C 102.098 8.713 101.446 10.267 100.947 11.204 C 100.388 12.255 100.416 13.139 101.020 13.513 C 101.559 13.846 102.000 16.566 102.000 19.559 C 102.000 22.552 102.450 25.000 103.000 25.000 C 103.557 25.000 104.000 22.310 104.000 18.930 C 104.000 13.208 104.129 12.879 106.250 13.180 C 108.243 13.464 108.534 14.156 108.800 19.250 C 109.195 26.822 111.000 26.685 111.000 19.083 C 111.000 15.286 111.448 12.986 112.250 12.662 C 113.250 12.259 113.250 12.142 112.250 12.079 C 110.454 11.966 110.697 8.000 112.500 8.000 C 113.325 8.000 114.000 7.519 114.000 6.930 C 114.000 4.686 109.578 6.516 109.000 9.000 C 108.241 12.261 104.000 13.168 104.000 10.070 C 104.000 8.897 104.650 8.000 105.500 8.000 C 106.325 8.000 107.000 7.550 107.000 7.000 C 107.000 5.262 102.962 5.920 102.396 7.750 "/></g>
<g fill="#E30748FF" stroke="#E30748FF">
<path d="M 34.250 34.662 C 31.955 35.588 32.963 36.519 36.250 36.510 C 41.086 36.495 40.645 39.405 35.750 39.810 C 32.337 40.093 32.000 40.385 32.000 43.060 C 32.000 45.873 33.304 46.728 36.500 46.013 C 37.050 45.890 38.513 45.781 39.750 45.770 C 41.771 45.752 42.000 45.257 42.000 40.910 C 42.000 37.149 41.569 35.840 40.066 35.035 C 38.022 33.942 36.308 33.832 34.250 34.662 M 40.000 42.021 C 40.000 43.735 35.116 45.516 33.860 44.260 C 33.263 43.663 33.077 42.685 33.446 42.087 C 34.298 40.710 40.000 40.652 40.000 42.021 "/></g>
<g fill="#10426CFF" stroke="#10426CFF">
<path d="M 87.422 7.344 C 87.138 8.083 87.040 11.973 87.203 15.989 C 87.429 21.556 87.904 23.544 89.202 24.360 C 90.138 24.948 91.263 25.046 91.702 24.578 C 92.141 24.109 91.938 23.525 91.250 23.280 C 90.384 22.971 90.000 20.245 90.000 14.417 C 90.000 9.301 89.595 6.000 88.969 6.000 C 88.401 6.000 87.705 6.605 87.422 7.344 "/></g>
<g fill="#E30748FF" stroke="#E30748FF">
<path d="M 62.250 34.662 C 61.563 34.940 61.000 36.241 61.000 37.555 C 61.000 39.410 61.726 40.131 64.250 40.785 C 66.038 41.248 67.500 42.274 67.500 43.064 C 67.500 44.048 66.477 44.454 64.250 44.353 C 60.514 44.183 59.849 45.547 63.341 46.214 C 70.010 47.489 72.672 41.473 66.250 39.639 C 62.537 38.578 61.753 35.756 65.250 36.039 C 68.839 36.330 69.608 36.039 68.000 35.000 C 66.400 33.966 64.284 33.842 62.250 34.662 "/></g>
<g fill="#10426CFF" stroke="#10426CFF">
<path d="M 75.343 13.566 C 73.267 15.642 72.896 16.741 73.402 19.316 C 74.376 24.279 79.044 26.556 83.000 24.000 C 84.117 23.278 83.552 23.027 80.785 23.015 C 77.039 23.000 75.000 21.105 75.000 17.637 C 75.000 15.398 77.969 12.868 80.376 13.056 C 83.823 13.325 84.639 12.919 82.500 12.000 C 79.243 10.600 78.047 10.862 75.343 13.566 "/></g>
<g fill="#10426CFF" stroke="#10426CFF">
<path d="M 95.000 18.500 C 95.000 22.167 95.436 25.000 96.000 25.000 C 96.564 25.000 97.000 22.167 97.000 18.500 C 97.000 14.833 96.564 12.000 96.000 12.000 C 95.436 12.000 95.000 14.833 95.000 18.500 "/></g>
<g fill="#E30748FF" stroke="#E30748FF">
<path d="M 25.162 37.643 C 25.036 43.988 25.324 45.910 26.468 46.349 C 27.275 46.659 28.178 46.521 28.474 46.042 C 28.770 45.563 28.447 44.983 27.756 44.753 C 26.975 44.493 26.278 41.532 25.912 36.918 L 25.323 29.500 25.162 37.643 "/></g>
<g fill="#E30748FF" stroke="#E30748FF">
<path d="M 1.000 6.941 C 1.000 8.617 2.774 9.033 3.364 7.494 C 3.712 6.587 3.361 6.000 2.469 6.000 C 1.661 6.000 1.000 6.423 1.000 6.941 "/></g>
<g fill="#E30748FF" stroke="#E30748FF">
<path d="M 1.000 40.000 C 1.000 40.550 1.702 41.000 2.559 41.000 C 3.416 41.000 3.840 40.550 3.500 40.000 C 3.160 39.450 2.459 39.000 1.941 39.000 C 1.423 39.000 1.000 39.450 1.000 40.000 "/></g>
<g fill="#E30748FF" stroke="#E30748FF">
<path d="M 1.000 26.000 C 1.000 26.550 1.702 27.000 2.559 27.000 C 3.416 27.000 3.840 26.550 3.500 26.000 C 3.160 25.450 2.459 25.000 1.941 25.000 C 1.423 25.000 1.000 25.450 1.000 26.000 "/></g>
<g fill="#10426CFF" stroke="#10426CFF">
<path d="M 95.000 7.000 C 95.000 7.550 95.450 8.000 96.000 8.000 C 96.550 8.000 97.000 7.550 97.000 7.000 C 97.000 6.450 96.550 6.000 96.000 6.000 C 95.450 6.000 95.000 6.450 95.000 7.000 "/></g>
<g fill="#E30748FF" stroke="#E30748FF">
<path d="M 2.000 30.000 C 2.000 30.550 2.450 31.000 3.000 31.000 C 3.550 31.000 4.000 30.550 4.000 30.000 C 4.000 29.450 3.550 29.000 3.000 29.000 C 2.450 29.000 2.000 29.450 2.000 30.000 "/></g>
<g fill="#E30748FF" stroke="#E30748FF">
<path d="M 2.000 22.000 C 2.000 22.550 2.450 23.000 3.000 23.000 C 3.550 23.000 4.000 22.550 4.000 22.000 C 4.000 21.450 3.550 21.000 3.000 21.000 C 2.450 21.000 2.000 21.450 2.000 22.000 "/></g>
<g fill="#E30748FF" stroke="#E30748FF">
<path d="M 4.000 10.359 C 4.000 11.371 4.462 11.833 5.087 11.446 C 5.870 10.962 5.870 10.470 5.087 9.687 C 4.304 8.904 4.000 9.092 4.000 10.359 "/></g>
<g fill="#B92657FF" stroke="#B92657FF">
<path d="M 7.000 17.000 C 7.000 17.550 7.450 18.000 8.000 18.000 C 8.550 18.000 9.000 17.550 9.000 17.000 C 9.000 16.450 8.550 16.000 8.000 16.000 C 7.450 16.000 7.000 16.450 7.000 17.000 "/></g>
<g fill="#E30748FF" stroke="#E30748FF">
<path d="M 4.624 18.799 C 4.212 19.466 4.390 20.000 5.024 20.000 C 5.653 20.000 5.987 19.460 5.766 18.799 C 5.455 17.865 5.202 17.865 4.624 18.799 "/></g>
<g fill="#B92657FF" stroke="#B92657FF">
<path d="M 4.800 33.200 C 5.733 34.133 6.000 34.133 6.000 33.200 C 6.000 32.540 5.460 32.000 4.800 32.000 C 3.867 32.000 3.867 32.267 4.800 33.200 "/></g>
</svg>
